<?xml version="1.0" standalone="no"?><!DOCTYPE svg PUBLIC "-//W3C//DTD SVG 1.1//EN" "http://www.w3.org/Graphics/SVG/1.1/DTD/svg11.dtd"><svg t="1715251302169" class="icon" viewBox="0 0 1024 1024" version="1.1" xmlns="http://www.w3.org/2000/svg" p-id="4280" xmlns:xlink="http://www.w3.org/1999/xlink" width="32" height="32"><path d="M426.666667 170.666667H170.666667c-47.36 0-85.333333 37.973333-85.333334 85.333333v512c0 46.805333 38.528 85.333333 85.333334 85.333333h682.666666c46.805333 0 85.333333-38.528 85.333334-85.333333V341.333333a85.333333 85.333333 0 0 0-85.333334-85.333333h-341.333333l-85.333333-85.333333z" fill="#42A5F5" p-id="4281"></path><path d="M887.936 363.52l-255.488 234.922667-142.762667-107.605334-59.008 34.346667 140.714667 129.28-140.714667 129.365333 59.008 34.432 142.762667-107.605333 255.488 234.794667 124.629333-60.544V424.106667z m0 154.538667v272.896l-181.12-136.448z" fill="#BBDEFB" p-id="4282"></path></svg>